<svg width="197" height="197" xmlns="http://www.w3.org/2000/svg" xmlns:xlink="http://www.w3.org/1999/xlink" xml:space="preserve" overflow="hidden"><defs><clipPath id="clip0"><rect x="552" y="210" width="197" height="197"/></clipPath></defs><g clip-path="url(#clip0)" transform="translate(-552 -210)"><path d="M657.682 243.859C657.726 239.955 654.609 236.747 650.705 236.677L650.5 236.677C646.533 236.677 643.318 239.893 643.318 243.859 643.318 247.826 646.533 251.042 650.5 251.042 654.467 251.042 657.682 247.826 657.682 243.859ZM653.578 243.824C653.597 245.524 652.235 246.918 650.535 246.937 648.835 246.957 647.442 245.594 647.422 243.894 647.403 242.194 648.765 240.801 650.465 240.781 650.477 240.781 650.489 240.781 650.5 240.781L650.633 240.781C652.287 240.809 653.604 242.171 653.578 243.824Z"/><path d="M673.584 293.28 666.826 286.524 663.925 289.426 673.584 299.085 691.451 281.218 688.55 278.316 673.584 293.28Z"/><path d="M609.456 285.923 652.55 285.923 652.55 290.027 609.456 290.027Z"/><path d="M673.584 315.859 666.826 309.101 663.925 312.003 673.584 321.662 691.451 303.795 688.55 300.893 673.584 315.859Z"/><path d="M609.456 310.552 652.55 310.552 652.55 314.656 609.456 314.656Z"/><path d="M609.456 335.173 652.55 335.173 652.55 339.277 609.456 339.277Z"/><path d="M609.456 359.798 652.55 359.798 652.55 363.902 609.456 363.902Z"/><path d="M687.438 329.021 671.021 329.021 671.021 345.438 687.438 345.438ZM683.333 341.333 675.125 341.333 675.125 333.125 683.333 333.125Z"/><path d="M687.438 353.646 671.021 353.646 671.021 370.062 687.438 370.062ZM683.333 365.958 675.125 365.958 675.125 357.75 683.333 357.75Z"/><path d="M703.854 240.738 673.073 240.738 673.073 236.634C673.066 230.97 668.476 226.38 662.812 226.374L638.188 226.374C632.524 226.38 627.934 230.97 627.927 236.634L627.927 240.738 597.146 240.738C592.613 240.738 588.938 244.413 588.938 248.946L588.938 382.375C588.938 386.908 592.613 390.583 597.146 390.583L703.854 390.583C708.387 390.583 712.062 386.908 712.062 382.375L712.062 248.946C712.062 244.413 708.387 240.738 703.854 240.738ZM623.823 244.842 632.031 244.842 632.031 236.634C632.031 233.234 634.787 230.478 638.188 230.478L662.812 230.478C666.213 230.478 668.969 233.234 668.969 236.634L668.969 244.842 677.177 244.842 677.177 261.302 623.823 261.302ZM707.958 382.375C707.958 384.642 706.121 386.479 703.854 386.479L597.146 386.479C594.879 386.479 593.042 384.642 593.042 382.375L593.042 248.946C593.042 246.68 594.879 244.842 597.146 244.842L619.719 244.842 619.719 265.406 681.281 265.406 681.281 244.842 703.854 244.842C706.121 244.842 707.958 246.68 707.958 248.946Z"/></g></svg>